<svg xmlns="http://www.w3.org/2000/svg" xmlns:svg="http://www.w3.org/2000/svg" xmlns:xlink="http://www.w3.org/1999/xlink" id="svg2205" width="261.978" height="182.566" version="1.0"><defs id="defs2207"><linearGradient id="linearGradient15524"><stop style="stop-color:#b31d1d;stop-opacity:1" id="stop15526" offset="0"/><stop style="stop-color:#9a1b1b;stop-opacity:.49803922" id="stop15543" offset=".27"/><stop style="stop-color:#e92b2b;stop-opacity:0" id="stop15528" offset="1"/></linearGradient><clipPath id="clipPath4357" clipPathUnits="userSpaceOnUse"><path style="fill:none;fill-opacity:1;fill-rule:evenodd;stroke:#000;stroke-width:.65338749px;stroke-linecap:butt;stroke-linejoin:miter;stroke-opacity:1" id="path4359" d="m -256.23704,579.63532 c 1.54436,-6.13305 7.0329,-14.26235 12.31773,-17.83753 12.7449,-8.6219 16.06321,7.59748 30.75878,3.03521 14.69558,-4.56227 19.40809,-21.60416 34.57769,-24.18593 15.16958,-2.58179 21.07544,13.09629 36.42744,12.0475 15.352,-1.04879 21.27294,-17.6712 36.66031,-17.78636 15.387372,-0.11516 22.534231,16.60728 37.886246,17.65607 15.352014,1.04879 23.086883,-14.5123 38.256452,-11.93051 15.169583,2.58179 22.8011286,20.51893 37.4966743,25.08119 14.6955867,4.56228 25.0220557,-9.14841 35.4059547,2.20572 5.516444,6.03187 5.775872,17.3815 5.953268,24.83232 l 0,0.96619 0,120.36777 -305.740545,0 0,-134.45164 z" transform="matrix(2.204693,0,0,2.3680367,-64.831399,-1102.6811)"/></clipPath><clipPath id="clipPath4357-3" clipPathUnits="userSpaceOnUse"><path style="fill:none;fill-opacity:1;fill-rule:evenodd;stroke:#000;stroke-width:.65338749px;stroke-linecap:butt;stroke-linejoin:miter;stroke-opacity:1" id="path4359-6" d="m -256.23704,579.63532 c 1.54436,-6.13305 7.0329,-14.26235 12.31773,-17.83753 12.7449,-8.6219 16.06321,7.59748 30.75878,3.03521 14.69558,-4.56227 19.40809,-21.60416 34.57769,-24.18593 15.16958,-2.58179 21.07544,13.09629 36.42744,12.0475 15.352,-1.04879 21.27294,-17.6712 36.66031,-17.78636 15.387372,-0.11516 22.534231,16.60728 37.886246,17.65607 15.352014,1.04879 23.086883,-14.5123 38.256452,-11.93051 15.169583,2.58179 22.8011286,20.51893 37.4966743,25.08119 14.6955867,4.56228 25.0220557,-9.14841 35.4059547,2.20572 5.516444,6.03187 5.775872,17.3815 5.953268,24.83232 l 0,0.96619 0,120.36777 -305.740545,0 0,-134.45164 z" transform="matrix(2.204693,0,0,2.3680367,-64.831399,-1102.6811)"/></clipPath><linearGradient id="linearGradient4361" x1="0" x2="234.083" y1="124" y2="124" gradientUnits="userSpaceOnUse" xlink:href="#linearGradient15524"/><linearGradient id="linearGradient4363" x1="13.364" x2="263.943" y1="124" y2="124" gradientUnits="userSpaceOnUse" xlink:href="#linearGradient15524"/><linearGradient id="linearGradient4365" x1="13.364" x2="263.943" y1="124" y2="124" gradientUnits="userSpaceOnUse" xlink:href="#linearGradient15524"/><linearGradient id="linearGradient4367" x1="13.364" x2="263.943" y1="124" y2="124" gradientUnits="userSpaceOnUse" xlink:href="#linearGradient15524"/><linearGradient id="linearGradient4369" x1="13.364" x2="263.943" y1="124" y2="124" gradientUnits="userSpaceOnUse" xlink:href="#linearGradient15524"/><linearGradient id="linearGradient4371" x1="13.364" x2="263.943" y1="124" y2="124" gradientUnits="userSpaceOnUse" xlink:href="#linearGradient15524"/></defs><metadata id="metadata2210"/><g id="layer1" transform="translate(-154.15664,-441.14316)"><g style="fill:#1a9a1a;fill-opacity:1" id="g4338" clip-path="url(#clipPath4357-3)" transform="matrix(0.4535779,0,0,0.4535779,418.69422,368.75649)"><path style="fill:url(#linearGradient4361);fill-opacity:1;fill-rule:evenodd;stroke:none;stroke-width:1.05100191px;stroke-linecap:butt;stroke-linejoin:miter;stroke-opacity:1" id="path15479" d="m 36.454593,106 c -10.739249,0 -12.739479,12.61369 -23.478731,12.61369 -4.4531621,0 -9.9864096,-3.68841 -12.975862,-5.33433 l 0,25.39853 C 2.9894524,140.32381 8.5226999,142 12.975862,142 c 10.739252,0 12.739482,-12.60148 23.478731,-12.60148 10.739249,0 14.018291,12.60149 24.757547,12.60148 10.739248,0 14.870835,-12.60148 25.610086,-12.60148 10.739249,0 14.870834,12.60149 25.610084,12.60148 10.73926,0 15.72338,-12.60148 26.46264,-12.60148 10.73926,0 16.14964,12.60149 26.88888,12.60148 10.73925,0 16.14968,-12.60148 26.88891,-12.60148 10.73926,0 17.42846,12.60149 28.16772,12.60148 5.70523,0 10.37891,-3.17263 13.24268,-5.75264 l 0,-23.39853 c -2.86377,2.58 -7.53745,5.76486 -13.24268,5.76486 C 210.1012,118.61369 203.412,106 192.67274,106 181.93351,106 176.52308,118.61369 165.78383,118.61369 155.04459,118.61369 149.63419,106 138.89495,106 128.1557,106 123.17157,118.61369 112.43231,118.61369 101.69306,118.61369 97.561478,106 86.822226,106 76.082972,106 71.951388,118.61369 61.21214,118.61369 50.472884,118.61369 47.193842,106 36.454593,106 Z" transform="matrix(0,-1.6850681,-1.858699,0,-314.8795,557.68305)"/><path style="fill:url(#linearGradient4363);fill-opacity:1;fill-rule:evenodd;stroke:none;stroke-width:1.05100191px;stroke-linecap:butt;stroke-linejoin:miter;stroke-opacity:1" id="use15481" d="m 36.454593,106 c -10.739249,0 -12.739479,12.61369 -23.478731,12.61369 -4.4531621,0 -9.9864096,-3.68841 -12.975862,-5.33433 l 0,25.39853 C 2.9894524,140.32381 8.5226999,142 12.975862,142 c 10.739252,0 12.739482,-12.60148 23.478731,-12.60148 10.739249,0 14.018291,12.60149 24.757547,12.60148 10.739248,0 14.870835,-12.60148 25.610086,-12.60148 10.739249,0 14.870834,12.60149 25.610084,12.60148 10.73926,0 15.72338,-12.60148 26.46264,-12.60148 10.73926,0 16.14964,12.60149 26.88888,12.60148 10.73925,0 16.14968,-12.60148 26.88891,-12.60148 10.73926,0 17.42846,12.60149 28.16772,12.60148 5.70523,0 10.37891,-3.17263 13.24268,-5.75264 l 0,-23.39853 c -2.86377,2.58 -7.53745,5.76486 -13.24268,5.76486 C 210.1012,118.61369 203.412,106 192.67274,106 181.93351,106 176.52308,118.61369 165.78383,118.61369 155.04459,118.61369 149.63419,106 138.89495,106 128.1557,106 123.17157,118.61369 112.43231,118.61369 101.69306,118.61369 97.561478,106 86.822226,106 76.082972,106 71.951388,118.61369 61.21214,118.61369 50.472884,118.61369 47.193842,106 36.454593,106 Z" transform="matrix(0,-1.6850681,-1.858699,0,-214.50976,557.68305)"/><path style="fill:url(#linearGradient4365);fill-opacity:1;fill-rule:evenodd;stroke:none;stroke-width:1.05100191px;stroke-linecap:butt;stroke-linejoin:miter;stroke-opacity:1" id="use15483" d="m 36.454593,106 c -10.739249,0 -12.739479,12.61369 -23.478731,12.61369 -4.4531621,0 -9.9864096,-3.68841 -12.975862,-5.33433 l 0,25.39853 C 2.9894524,140.32381 8.5226999,142 12.975862,142 c 10.739252,0 12.739482,-12.60148 23.478731,-12.60148 10.739249,0 14.018291,12.60149 24.757547,12.60148 10.739248,0 14.870835,-12.60148 25.610086,-12.60148 10.739249,0 14.870834,12.60149 25.610084,12.60148 10.73926,0 15.72338,-12.60148 26.46264,-12.60148 10.73926,0 16.14964,12.60149 26.88888,12.60148 10.73925,0 16.14968,-12.60148 26.88891,-12.60148 10.73926,0 17.42846,12.60149 28.16772,12.60148 5.70523,0 10.37891,-3.17263 13.24268,-5.75264 l 0,-23.39853 c -2.86377,2.58 -7.53745,5.76486 -13.24268,5.76486 C 210.1012,118.61369 203.412,106 192.67274,106 181.93351,106 176.52308,118.61369 165.78383,118.61369 155.04459,118.61369 149.63419,106 138.89495,106 128.1557,106 123.17157,118.61369 112.43231,118.61369 101.69306,118.61369 97.561478,106 86.822226,106 76.082972,106 71.951388,118.61369 61.21214,118.61369 50.472884,118.61369 47.193842,106 36.454593,106 Z" clip-path="none" transform="matrix(0,-1.6850681,-1.858699,0,-114.14001,557.68305)"/><path style="fill:url(#linearGradient4367);fill-opacity:1;fill-rule:evenodd;stroke:none;stroke-width:1.05100191px;stroke-linecap:butt;stroke-linejoin:miter;stroke-opacity:1" id="use15485" d="m 36.454593,106 c -10.739249,0 -12.739479,12.61369 -23.478731,12.61369 -4.4531621,0 -9.9864096,-3.68841 -12.975862,-5.33433 l 0,25.39853 C 2.9894524,140.32381 8.5226999,142 12.975862,142 c 10.739252,0 12.739482,-12.60148 23.478731,-12.60148 10.739249,0 14.018291,12.60149 24.757547,12.60148 10.739248,0 14.870835,-12.60148 25.610086,-12.60148 10.739249,0 14.870834,12.60149 25.610084,12.60148 10.73926,0 15.72338,-12.60148 26.46264,-12.60148 10.73926,0 16.14964,12.60149 26.88888,12.60148 10.73925,0 16.14968,-12.60148 26.88891,-12.60148 10.73926,0 17.42846,12.60149 28.16772,12.60148 5.70523,0 10.37891,-3.17263 13.24268,-5.75264 l 0,-23.39853 c -2.86377,2.58 -7.53745,5.76486 -13.24268,5.76486 C 210.1012,118.61369 203.412,106 192.67274,106 181.93351,106 176.52308,118.61369 165.78383,118.61369 155.04459,118.61369 149.63419,106 138.89495,106 128.1557,106 123.17157,118.61369 112.43231,118.61369 101.69306,118.61369 97.561478,106 86.822226,106 76.082972,106 71.951388,118.61369 61.21214,118.61369 50.472884,118.61369 47.193842,106 36.454593,106 Z" transform="matrix(0,-1.6850681,-1.858699,0,-13.770269,557.68305)"/><path style="fill:url(#linearGradient4369);fill-opacity:1;fill-rule:evenodd;stroke:none;stroke-width:1.05100191px;stroke-linecap:butt;stroke-linejoin:miter;stroke-opacity:1" id="use15487" d="m 36.454593,106 c -10.739249,0 -12.739479,12.61369 -23.478731,12.61369 -4.4531621,0 -9.9864096,-3.68841 -12.975862,-5.33433 l 0,25.39853 C 2.9894524,140.32381 8.5226999,142 12.975862,142 c 10.739252,0 12.739482,-12.60148 23.478731,-12.60148 10.739249,0 14.018291,12.60149 24.757547,12.60148 10.739248,0 14.870835,-12.60148 25.610086,-12.60148 10.739249,0 14.870834,12.60149 25.610084,12.60148 10.73926,0 15.72338,-12.60148 26.46264,-12.60148 10.73926,0 16.14964,12.60149 26.88888,12.60148 10.73925,0 16.14968,-12.60148 26.88891,-12.60148 10.73926,0 17.42846,12.60149 28.16772,12.60148 5.70523,0 10.37891,-3.17263 13.24268,-5.75264 l 0,-23.39853 c -2.86377,2.58 -7.53745,5.76486 -13.24268,5.76486 C 210.1012,118.61369 203.412,106 192.67274,106 181.93351,106 176.52308,118.61369 165.78383,118.61369 155.04459,118.61369 149.63419,106 138.89495,106 128.1557,106 123.17157,118.61369 112.43231,118.61369 101.69306,118.61369 97.561478,106 86.822226,106 76.082972,106 71.951388,118.61369 61.21214,118.61369 50.472884,118.61369 47.193842,106 36.454593,106 Z" transform="matrix(0,-1.6850681,-1.858699,0,86.599461,557.68305)"/><path style="fill:url(#linearGradient4371);fill-opacity:1;fill-rule:evenodd;stroke:none;stroke-width:1.05100191px;stroke-linecap:butt;stroke-linejoin:miter;stroke-opacity:1" id="use15489" d="m 36.454593,106 c -10.739249,0 -12.739479,12.61369 -23.478731,12.61369 -4.4531621,0 -9.9864096,-3.68841 -12.975862,-5.33433 l 0,25.39853 C 2.9894524,140.32381 8.5226999,142 12.975862,142 c 10.739252,0 12.739482,-12.60148 23.478731,-12.60148 10.739249,0 14.018291,12.60149 24.757547,12.60148 10.739248,0 14.870835,-12.60148 25.610086,-12.60148 10.739249,0 14.870834,12.60149 25.610084,12.60148 10.73926,0 15.72338,-12.60148 26.46264,-12.60148 10.73926,0 16.14964,12.60149 26.88888,12.60148 10.73925,0 16.14968,-12.60148 26.88891,-12.60148 10.73926,0 17.42846,12.60149 28.16772,12.60148 5.70523,0 10.37891,-3.17263 13.24268,-5.75264 l 0,-23.39853 c -2.86377,2.58 -7.53745,5.76486 -13.24268,5.76486 C 210.1012,118.61369 203.412,106 192.67274,106 181.93351,106 176.52308,118.61369 165.78383,118.61369 155.04459,118.61369 149.63419,106 138.89495,106 128.1557,106 123.17157,118.61369 112.43231,118.61369 101.69306,118.61369 97.561478,106 86.822226,106 76.082972,106 71.951388,118.61369 61.21214,118.61369 50.472884,118.61369 47.193842,106 36.454593,106 Z" transform="matrix(0,-1.6850681,-1.858699,0,186.96924,557.68305)"/></g></g></svg>