<svg xmlns="http://www.w3.org/2000/svg" xmlns:svg="http://www.w3.org/2000/svg" id="svg4171" width="313.996" height="188.804" version="1.1" viewBox="0 0 294.372 177.004"><metadata id="metadata4176"/><g id="layer1" transform="translate(-227.81422,-443.86032)"><path id="path15491" d="m 242.03851,450.94693 c -3.94187,2.7e-4 -7.13728,3.04645 -7.13768,6.8041 l 0,123.63895 c 4e-4,3.75765 3.19582,6.80372 7.13768,6.8041 l 0.91005,0 c -1.89771,1.21176 -3.14926,3.31733 -3.1495,5.71544 l 0,19.86796 13.77571,0 0,-13.06386 242.85045,0 0,13.06386 13.77571,0 0,-19.86796 c -2.5e-4,-2.39811 -1.25179,-4.50368 -3.1495,-5.71544 l 0.91005,0 c 3.94185,-2.8e-4 7.13728,-3.04646 7.13768,-6.8041 l 0,-123.63895 c -2.9e-4,-3.75765 -3.19582,-6.80372 -7.13768,-6.8041 l -265.92297,0 z m 7.13767,13.60819 7.44995,0 0,110.03076 -7.44995,0 0,-110.03076 z m 16.79138,0 11.33106,0 0,110.03076 -11.33106,0 0,-110.03076 z m 20.67249,0 11.33998,0 0,110.03076 -11.33998,0 0,-110.03076 z m 20.67249,0 11.33998,0 0,110.03076 -11.33998,0 0,-110.03076 z m 20.67249,0 11.33998,0 0,110.03076 -11.33998,0 0,-110.03076 z m 20.67249,0 11.33998,0 0,110.03076 -11.33998,0 0,-110.03076 z m 20.67249,0 11.33998,0 0,110.03076 -11.33998,0 0,-110.03076 z m 20.67248,0 11.33998,0 0,110.03076 -11.33998,0 0,-110.03076 z m 20.67249,0 11.33998,0 0,110.03076 -11.33998,0 0,-110.03076 z m 20.67249,0 11.33998,0 0,110.03076 -11.33998,0 0,-110.03076 z m 20.67249,0 11.33998,0 0,110.03076 -11.33998,0 0,-110.03076 z m 20.68141,0 11.33106,0 0,110.03076 -11.33106,0 0,-110.03076 z m 20.6725,0 7.44994,0 0,110.03076 -7.44994,0 0,-110.03076 z" style="color:#000;display:inline;overflow:visible;visibility:visible;opacity:1;fill:#000;fill-opacity:1;fill-rule:nonzero;stroke:none;stroke-width:50;stroke-linecap:butt;stroke-linejoin:round;stroke-miterlimit:4;stroke-dasharray:none;stroke-dashoffset:0;stroke-opacity:1;marker:none;enable-background:accumulate"/></g></svg>